<?xml version="1.0" encoding="UTF-8" standalone="no"?>
<!-- Created with Inkscape (http://www.inkscape.org/) -->

<svg
   width="210mm"
   height="210mm"
   viewBox="0 0 210 210"
   version="1.1"
   id="svg1"
   xml:space="preserve"
   inkscape:version="1.4 (e7c3feb100, 2024-10-09)"
   sodipodi:docname="logo.svg"
   inkscape:export-filename="logo.png"
   inkscape:export-xdpi="96"
   inkscape:export-ydpi="96"
   xmlns:inkscape="http://www.inkscape.org/namespaces/inkscape"
   xmlns:sodipodi="http://sodipodi.sourceforge.net/DTD/sodipodi-0.dtd"
   xmlns="http://www.w3.org/2000/svg"
   xmlns:svg="http://www.w3.org/2000/svg"><sodipodi:namedview
     id="namedview1"
     pagecolor="#ffffff"
     bordercolor="#000000"
     borderopacity="0.25"
     inkscape:showpageshadow="2"
     inkscape:pageopacity="0.0"
     inkscape:pagecheckerboard="0"
     inkscape:deskcolor="#d1d1d1"
     inkscape:document-units="mm"
     inkscape:zoom="0.85076455"
     inkscape:cx="562.43528"
     inkscape:cy="606.51328"
     inkscape:window-width="3432"
     inkscape:window-height="2136"
     inkscape:window-x="0"
     inkscape:window-y="0"
     inkscape:window-maximized="1"
     inkscape:current-layer="layer1" /><defs
     id="defs1" /><g
     inkscape:label="Layer 1"
     inkscape:groupmode="layer"
     id="layer1"><path
       style="fill:#ff0000;stroke-width:1.45689"
       d="M 22.768807,202.27446 C 18.576505,201.1386 15.707866,199.43625 12.81041,196.3648 6.7707459,189.96243 4.4620421,180.54379 5.3416547,165.89507 7.1656179,135.51948 17.872225,111.34439 34.715482,99.570117 c 3.148711,-2.201108 9.048583,-5.047043 12.051972,-5.813549 2.487708,-0.634898 9.308989,-0.76828 12.061271,-0.235828 l 1.638242,0.31691 V 79.048877 64.260101 h 3.66195 3.661951 v -3.469216 -3.469231 h 7.131168 7.131168 v -3.469217 -3.469216 l 3.372848,-4.4e-5 3.37285,-5.8e-5 -0.03911,3.372902 -0.03911,3.372901 -3.333747,0.111306 -3.333748,0.111307 v 3.45421 3.454211 h 3.396224 3.396223 l -0.02337,3.372843 -0.02337,3.372843 3.565584,0.11087 3.565584,0.110869 V 60.612532 49.997685 h 3.469216 3.469222 v 7.131164 7.131179 h 3.46922 3.4692 v 3.469217 3.469217 h -3.4692 -3.46922 v 3.661948 3.661949 h 3.66196 3.66195 v -3.454211 -3.454211 l 3.37284,-0.111307 3.37285,-0.111305 0.10502,-7.034807 0.10502,-7.034806 h -3.47791 -3.47792 V 53.852496 50.38328 h 3.46923 3.46921 v -3.469217 -3.469217 h 3.46922 3.46921 v 6.938434 6.938432 h 5.78203 5.78203 v 3.260896 3.260896 l -3.18011,0.112035 -3.18012,0.111889 v 3.469217 3.469215 l 6.84207,0.10519 6.84207,0.105338 v -3.478125 -3.478104 h 4.07125 4.07126 l -0.0501,3.180112 c -0.0276,1.749054 -0.0383,8.315309 -0.0239,14.591674 l 0.0264,11.411544 5.49292,-0.18507 c 6.52254,-0.219763 8.68979,0.209884 14.05812,2.786986 10.50555,5.043285 18.70645,13.786135 24.96349,26.613215 4.26153,8.73619 7.2883,18.46948 9.02289,29.01513 2.10496,12.79726 2.27189,25.39076 0.43327,32.68346 -1.90618,7.56058 -6.38289,13.60194 -12.11779,16.35305 -4.0856,1.95992 -6.93902,2.48065 -12.09362,2.20695 -9.21573,-0.48933 -16.02299,-3.83718 -26.42164,-12.99432 l -3.28296,-2.89103 -0.0273,-13.39502 -0.0273,-13.39503 h -3.66196 -3.66194 v 3.46921 3.46922 h -7.13116 -7.13117 v -3.27649 -3.27647 h 3.27649 3.27648 v -3.27649 -3.27648 h 3.46922 3.46921 v -3.66196 -3.66194 h -3.66196 -3.66194 v 3.46921 3.46922 h -5.78203 -5.78203 v -6.93843 -6.93843 h 3.67642 3.67642 l -0.11087,-3.56559 -0.11088,-3.56558 -3.55092,-0.11058 -3.55094,-0.11058 -0.11101,3.57985 -0.11102,3.57986 -3.56558,0.11087 -3.56558,0.11087 v 3.45475 3.45475 h -3.48355 -3.48368 l 0.11085,3.56559 0.11082,3.56557 3.37285,0.11131 3.37285,0.11131 v 6.53794 6.53797 h -3.27649 -3.27648 v -3.27649 -3.27648 h -3.46922 -3.46921 v -7.13117 -7.13116 h -3.661961 -3.661951 v 10.40764 10.40766 h -3.469217 -3.469216 v -3.27649 -3.27648 h -3.469238 -3.469216 v -3.27649 -3.27648 h 3.469216 3.469217 v -3.66196 -3.66194 h -3.661951 -3.66195 v 3.46921 3.46922 h -7.131168 -7.131168 v 3.46922 3.46922 h -3.469215 -3.469217 v 13.08936 13.08938 l -3.675957,3.27283 c -7.410805,6.59809 -12.488048,9.71993 -18.89771,11.61961 -4.782104,1.4173 -11.127591,1.65899 -15.124493,0.57606 z m 22.704251,-45.22051 c 2.210913,-1.47699 2.657635,-2.88634 2.658317,-8.38659 l 6e-4,-4.82871 -2.69828,-2.6776 -2.69828,-2.6776 -2.69828,2.6776 -2.698279,2.6776 5.99e-4,4.82871 c 4.75e-4,3.82778 0.140299,5.10676 0.67457,6.17015 0.886477,1.76442 2.913149,3.09143 4.72139,3.09143 0.842812,0 1.964534,-0.35853 2.737643,-0.87499 z M 174.89793,154.7334 c 5.16262,-3.41645 2.67831,-11.83773 -3.49218,-11.83773 -5.81865,0 -8.85252,6.60996 -5.0166,10.92981 2.00972,2.26326 5.84268,2.67227 8.50878,0.90792 z m -12.55524,-13.0992 c 4.02241,-3.06803 3.03419,-9.23154 -1.8032,-11.24646 -1.60014,-0.66653 -2.00815,-0.69653 -3.62165,-0.26628 -3.33709,0.88985 -5.2854,3.53255 -5.01432,6.80144 0.18711,2.25641 1.28378,4.08621 3.15301,5.26091 1.79201,1.12615 5.451,0.85015 7.28616,-0.54961 z m 24.8232,0.62302 c 2.78495,-1.32155 4.19135,-4.99817 3.05254,-7.98007 -1.65189,-4.32541 -6.77829,-5.77828 -10.09944,-2.86226 -1.81821,1.5964 -2.46959,2.97777 -2.46959,5.23713 0,4.69922 5.09799,7.70192 9.51649,5.6052 z m -148.96907,-3.10986 2.611917,-2.59192 -2.591906,-2.61192 -2.591906,-2.61191 h -5.347424 c -6.210454,0 -7.113827,0.32217 -8.409723,2.99913 -1.24729,2.57656 -0.451995,5.10033 2.096991,6.65454 1.059703,0.64615 1.957619,0.7513 6.42598,0.75254 l 5.194151,0.001 z m 23.465915,1.7195 c 3.03574,-2.02199 3.353297,-5.46235 0.744951,-8.0707 l -1.464552,-1.46455 h -5.527906 -5.527904 l -2.419549,2.39804 c -1.330751,1.31893 -2.419549,2.57184 -2.419549,2.78427 0,0.21244 1.07912,1.47504 2.398043,2.80579 l 2.398043,2.41956 h 5.254323 c 4.815207,0 5.363784,-0.0728 6.5641,-0.87241 z m 34.267334,-4.71689 v -3.66196 h -3.469216 -3.469217 v -3.66194 -3.66196 h -3.661951 -3.66195 v 3.66196 3.66194 h 3.469217 3.469216 v 3.66196 3.66194 h 3.66195 3.661951 z m -50.409681,-4.3262 2.611587,-2.59157 v -4.7447 c 0,-5.34353 -0.371007,-6.68883 -2.289973,-8.30352 -1.748109,-1.47095 -4.465064,-1.47095 -6.213173,0 -1.917298,1.61329 -2.289973,2.96137 -2.289973,8.2835 v 4.72471 l 2.591575,2.61158 c 1.425365,1.43636 2.678604,2.61158 2.784972,2.61158 0.106368,0 1.368612,-1.16621 2.804985,-2.59158 z M 174.16308,129.413 c 2.21686,-1.13098 3.23953,-2.80429 3.41123,-5.58163 0.12937,-2.09194 0.0272,-2.48945 -1.00206,-3.90228 -3.37811,-4.63668 -10.02442,-3.40413 -11.69407,2.16864 -0.35202,1.17496 -0.35202,1.87405 0,3.04901 1.26415,4.21933 5.53252,6.18057 9.2849,4.26626 z m -63.97067,-7.52536 v -3.66197 h -3.66196 -3.66195 v 3.66197 3.66194 h 3.66195 3.66196 z m 13.87687,-14.26234 v -3.66195 h -3.66196 -3.66195 v 3.66195 3.66194 h 3.66195 3.66196 z M 110.19241,96.061248 v -3.661954 h -3.66196 -3.66195 v 3.661954 3.661939 h 3.66195 3.66196 z M 95.930069,81.756126 v -3.648092 l -3.565583,0.110868 -3.565584,0.11087 -0.112298,3.436612 c -0.06177,1.89014 0.05035,3.538021 0.249151,3.661946 0.198801,0.123978 1.85385,0.169237 3.677889,0.100694 l 3.316433,-0.124706 z m -19.658893,0.04283 v -3.661947 h -3.661951 -3.661952 v 3.661948 3.661944 h 3.661952 3.661951 z m 66.686054,0 v -3.661947 h -3.66196 -3.66195 v 3.661948 3.661944 h 3.66195 3.66196 z M 136.0188,53.852481 v -3.469217 h 3.46922 3.46921 v 3.469217 3.469215 h -3.46921 -3.46922 z m -68.228068,-7.034791 1.36e-4,-3.372858 h 3.484224 3.484224 l -0.11138,3.310066 -0.111378,3.310066 -3.372987,0.06279 -3.372984,0.06279 z m 20.896797,-7.131165 0.111378,-3.372858 3.372851,-0.111306 3.372849,-0.111306 v 3.484222 3.484222 h -3.484223 -3.484225 z m 35.381751,-0.0963 v -3.469216 h 3.46921 3.46921 v 3.469216 3.469217 h -3.46921 -3.46921 z m -42.016076,-7.3389 v -3.484222 l 3.335389,0.111306 3.335391,0.111452 0.03746,3.372391 0.03746,3.372392 -3.37285,4.52e-4 -3.372849,4.66e-4 z m 61.289496,0.01501 v -3.469216 h 3.27649 3.27648 l 0.0279,2.023705 c 0.0153,1.113035 0.0587,2.674295 0.0965,3.46945 l 0.0685,1.445729 -3.37285,-2.18e-4 -3.37285,-2.33e-4 z m -40.19216,-3.953708 c -0.10228,-0.266465 -0.18203,-1.827609 -0.17728,-3.469217 l 0.008,-2.984728 h 3.41252 3.41252 v 3.469217 3.469216 h -3.23524 c -2.24203,0 -3.29232,-0.148734 -3.42115,-0.484488 z m 13.9803,-17.247072 V 7.5963372 h 3.46921 3.46923 v 3.4692178 3.469216 h -3.46923 -3.46921 z"
       id="path1"
       sodipodi:nodetypes="cssssscccccccccccccccccccccccccccccccccccccccccccccccccccccccccccccccccccccccccsccsssssssscccccccccccccccccccccccccccccccccccccccccccccccccccccccccccccccccccccccccccccccccccssccsscccccsssssssssssssssssssccccsssscccscccssscsccccccccccccccccccscsssscssssssssscccccccccccccccccccccccccccccccssscccccccccccccccccccccccccccccccccccccccccccccccccccccccccccccccccccccsccccccscccccsccccccccccc" /></g></svg>
